<svg xmlns="http://www.w3.org/2000/svg" xmlns:xlink="http://www.w3.org/1999/xlink" width="500" zoomAndPan="magnify" viewBox="0 0 375 374.999991" height="500" preserveAspectRatio="xMidYMid meet" version="1.0"><defs><g/><clipPath id="a59761c613"><rect x="0" width="171" y="0" height="70"/></clipPath><clipPath id="aeeda15f28"><path d="M 84 154 L 101 154 L 101 172 L 84 172 Z M 84 154 " clip-rule="nonzero"/></clipPath><clipPath id="80217882a1"><path d="M 84.914062 157.214844 L 96.605469 154.28125 L 100.261719 168.851562 L 88.574219 171.785156 Z M 84.914062 157.214844 " clip-rule="nonzero"/></clipPath><clipPath id="cd33dab870"><path d="M 0.71875 0.078125 L 16.320312 0.078125 L 16.320312 17.839844 L 0.71875 17.839844 Z M 0.71875 0.078125 " clip-rule="nonzero"/></clipPath><clipPath id="17e03d8cc8"><path d="M 0.914062 3.214844 L 12.605469 0.28125 L 16.261719 14.851562 L 4.574219 17.785156 Z M 0.914062 3.214844 " clip-rule="nonzero"/></clipPath><clipPath id="b5d2ec624a"><rect x="0" width="17" y="0" height="18"/></clipPath><clipPath id="cc67a5535f"><path d="M 75 159 L 111 159 L 111 190 L 75 190 Z M 75 159 " clip-rule="nonzero"/></clipPath><clipPath id="81f5033ff0"><path d="M 75.457031 180.941406 L 105.175781 159.972656 L 110.988281 168.210938 L 81.269531 189.175781 Z M 75.457031 180.941406 " clip-rule="nonzero"/></clipPath><clipPath id="92a372873e"><path d="M 0.359375 0.839844 L 36 0.839844 L 36 30.359375 L 0.359375 30.359375 Z M 0.359375 0.839844 " clip-rule="nonzero"/></clipPath><clipPath id="36dfded8d5"><path d="M 0.457031 21.941406 L 30.175781 0.972656 L 35.988281 9.210938 L 6.269531 30.175781 Z M 0.457031 21.941406 " clip-rule="nonzero"/></clipPath><clipPath id="c1fd26cf09"><rect x="0" width="36" y="0" height="31"/></clipPath><clipPath id="5bd1f24514"><path d="M 47 153 L 111 153 L 111 219 L 47 219 Z M 47 153 " clip-rule="nonzero"/></clipPath><clipPath id="3e36c5bf37"><path d="M 110.988281 163.484375 L 100.097656 218.667969 L 47.121094 208.214844 L 58.007812 153.03125 Z M 110.988281 163.484375 " clip-rule="nonzero"/></clipPath><clipPath id="424e1f9194"><path d="M 23 35 L 39 35 L 39 61 L 23 61 Z M 23 35 " clip-rule="nonzero"/></clipPath><clipPath id="c6ed1f8ca1"><path d="M 63.988281 10.484375 L 53.097656 65.667969 L 0.121094 55.214844 L 11.007812 0.03125 Z M 63.988281 10.484375 " clip-rule="nonzero"/></clipPath><clipPath id="64aa5c1fec"><path d="M 53.101562 65.644531 L 63.992188 10.460938 L 11.011719 0.0078125 L 0.125 55.191406 Z M 53.101562 65.644531 " clip-rule="nonzero"/></clipPath><clipPath id="6f55c9d4dd"><path d="M 38 9 L 57 9 L 57 29 L 38 29 Z M 38 9 " clip-rule="nonzero"/></clipPath><clipPath id="8efc906484"><path d="M 63.988281 10.484375 L 53.097656 65.667969 L 0.121094 55.214844 L 11.007812 0.03125 Z M 63.988281 10.484375 " clip-rule="nonzero"/></clipPath><clipPath id="e8f29ff2e1"><path d="M 53.101562 65.644531 L 63.992188 10.460938 L 11.011719 0.0078125 L 0.125 55.191406 Z M 53.101562 65.644531 " clip-rule="nonzero"/></clipPath><clipPath id="3017f2db43"><path d="M 3 16 L 63 16 L 63 46 L 3 46 Z M 3 16 " clip-rule="nonzero"/></clipPath><clipPath id="43802ea164"><path d="M 63.988281 10.484375 L 53.097656 65.667969 L 0.121094 55.214844 L 11.007812 0.03125 Z M 63.988281 10.484375 " clip-rule="nonzero"/></clipPath><clipPath id="2a61ee5e36"><path d="M 53.101562 65.644531 L 63.992188 10.460938 L 11.011719 0.0078125 L 0.125 55.191406 Z M 53.101562 65.644531 " clip-rule="nonzero"/></clipPath><clipPath id="0f3236eb76"><rect x="0" width="64" y="0" height="66"/></clipPath></defs><g transform="matrix(1, 0, 0, 1, 87, 154)"><g clip-path="url(#a59761c613)"><g fill="#af8f6f" fill-opacity="1"><g transform="translate(1.480814, 55.034832)"><g><path d="M 22.34375 -30.625 C 25.09375 -30.625 27.585938 -29.992188 29.828125 -28.734375 C 32.066406 -27.484375 33.84375 -25.679688 35.15625 -23.328125 C 36.476562 -20.972656 37.140625 -18.238281 37.140625 -15.125 C 37.140625 -12.007812 36.476562 -9.265625 35.15625 -6.890625 C 33.84375 -4.515625 32.066406 -2.6875 29.828125 -1.40625 C 27.585938 -0.132812 25.09375 0.5 22.34375 0.5 C 18.382812 0.5 15.421875 -0.664062 13.453125 -3 L 13.453125 0 L 3.390625 0 L 3.390625 -41.25 L 13.953125 -41.25 L 13.953125 -27.515625 C 15.992188 -29.585938 18.789062 -30.625 22.34375 -30.625 Z M 20.125 -7.890625 C 21.976562 -7.890625 23.5 -8.53125 24.6875 -9.8125 C 25.875 -11.09375 26.46875 -12.863281 26.46875 -15.125 C 26.46875 -17.34375 25.875 -19.082031 24.6875 -20.34375 C 23.5 -21.601562 21.976562 -22.234375 20.125 -22.234375 C 18.269531 -22.234375 16.75 -21.601562 15.5625 -20.34375 C 14.375 -19.082031 13.78125 -17.34375 13.78125 -15.125 C 13.78125 -12.863281 14.375 -11.09375 15.5625 -9.8125 C 16.75 -8.53125 18.269531 -7.890625 20.125 -7.890625 Z M 20.125 -7.890625 "/></g></g></g><g fill="#af8f6f" fill-opacity="1"><g transform="translate(34.225113, 55.034832)"><g><path d="M 16.234375 -30.625 C 21.234375 -30.625 25.050781 -29.484375 27.6875 -27.203125 C 30.320312 -24.929688 31.640625 -21.441406 31.640625 -16.734375 L 31.640625 0 L 21.796875 0 L 21.796875 -3.890625 C 20.273438 -0.960938 17.304688 0.5 12.890625 0.5 C 10.554688 0.5 8.535156 0.09375 6.828125 -0.71875 C 5.128906 -1.539062 3.84375 -2.644531 2.96875 -4.03125 C 2.101562 -5.414062 1.671875 -7 1.671875 -8.78125 C 1.671875 -11.632812 2.765625 -13.847656 4.953125 -15.421875 C 7.140625 -17.003906 10.507812 -17.796875 15.0625 -17.796875 L 21.0625 -17.796875 C 20.882812 -20.984375 18.753906 -22.578125 14.671875 -22.578125 C 13.234375 -22.578125 11.769531 -22.34375 10.28125 -21.875 C 8.800781 -21.414062 7.539062 -20.773438 6.5 -19.953125 L 2.953125 -27.125 C 4.617188 -28.238281 6.644531 -29.097656 9.03125 -29.703125 C 11.425781 -30.316406 13.828125 -30.625 16.234375 -30.625 Z M 15.84375 -6.171875 C 17.0625 -6.171875 18.132812 -6.46875 19.0625 -7.0625 C 19.988281 -7.65625 20.65625 -8.523438 21.0625 -9.671875 L 21.0625 -12.28125 L 16.515625 -12.28125 C 13.429688 -12.28125 11.890625 -11.265625 11.890625 -9.234375 C 11.890625 -8.304688 12.242188 -7.5625 12.953125 -7 C 13.660156 -6.445312 14.625 -6.171875 15.84375 -6.171875 Z M 15.84375 -6.171875 "/></g></g></g><g fill="#af8f6f" fill-opacity="1"><g transform="translate(63.244691, 55.034832)"><g><path d="M 13.453125 -26.515625 C 14.523438 -27.890625 15.921875 -28.914062 17.640625 -29.59375 C 19.367188 -30.28125 21.347656 -30.625 23.578125 -30.625 L 23.578125 -21.125 C 22.609375 -21.238281 21.8125 -21.296875 21.1875 -21.296875 C 18.925781 -21.296875 17.15625 -20.679688 15.875 -19.453125 C 14.59375 -18.234375 13.953125 -16.363281 13.953125 -13.84375 L 13.953125 0 L 3.390625 0 L 3.390625 -30.125 L 13.453125 -30.125 Z M 13.453125 -26.515625 "/></g></g></g><g fill="#af8f6f" fill-opacity="1"><g transform="translate(81.979546, 55.034832)"><g><path d="M 22.34375 -30.625 C 25.09375 -30.625 27.585938 -29.992188 29.828125 -28.734375 C 32.066406 -27.484375 33.84375 -25.679688 35.15625 -23.328125 C 36.476562 -20.972656 37.140625 -18.238281 37.140625 -15.125 C 37.140625 -12.007812 36.476562 -9.265625 35.15625 -6.890625 C 33.84375 -4.515625 32.066406 -2.6875 29.828125 -1.40625 C 27.585938 -0.132812 25.09375 0.5 22.34375 0.5 C 18.382812 0.5 15.421875 -0.664062 13.453125 -3 L 13.453125 0 L 3.390625 0 L 3.390625 -41.25 L 13.953125 -41.25 L 13.953125 -27.515625 C 15.992188 -29.585938 18.789062 -30.625 22.34375 -30.625 Z M 20.125 -7.890625 C 21.976562 -7.890625 23.5 -8.53125 24.6875 -9.8125 C 25.875 -11.09375 26.46875 -12.863281 26.46875 -15.125 C 26.46875 -17.34375 25.875 -19.082031 24.6875 -20.34375 C 23.5 -21.601562 21.976562 -22.234375 20.125 -22.234375 C 18.269531 -22.234375 16.75 -21.601562 15.5625 -20.34375 C 14.375 -19.082031 13.78125 -17.34375 13.78125 -15.125 C 13.78125 -12.863281 14.375 -11.09375 15.5625 -9.8125 C 16.75 -8.53125 18.269531 -7.890625 20.125 -7.890625 Z M 20.125 -7.890625 "/></g></g></g><g fill="#af8f6f" fill-opacity="1"><g transform="translate(114.723845, 55.034832)"><g><path d="M 34.1875 -15.015625 C 34.1875 -14.941406 34.128906 -14.066406 34.015625 -12.390625 L 12.125 -12.390625 C 12.5625 -10.835938 13.421875 -9.644531 14.703125 -8.8125 C 15.984375 -7.976562 17.585938 -7.5625 19.515625 -7.5625 C 20.960938 -7.5625 22.210938 -7.765625 23.265625 -8.171875 C 24.316406 -8.578125 25.382812 -9.242188 26.46875 -10.171875 L 32.015625 -4.390625 C 29.085938 -1.128906 24.8125 0.5 19.1875 0.5 C 15.65625 0.5 12.554688 -0.164062 9.890625 -1.5 C 7.222656 -2.832031 5.15625 -4.6875 3.6875 -7.0625 C 2.226562 -9.4375 1.5 -12.125 1.5 -15.125 C 1.5 -18.082031 2.210938 -20.738281 3.640625 -23.09375 C 5.066406 -25.445312 7.039062 -27.289062 9.5625 -28.625 C 12.082031 -29.957031 14.914062 -30.625 18.0625 -30.625 C 21.070312 -30.625 23.796875 -30.003906 26.234375 -28.765625 C 28.679688 -27.523438 30.617188 -25.726562 32.046875 -23.375 C 33.472656 -21.019531 34.1875 -18.234375 34.1875 -15.015625 Z M 18.125 -23.125 C 16.488281 -23.125 15.125 -22.660156 14.03125 -21.734375 C 12.9375 -20.804688 12.242188 -19.546875 11.953125 -17.953125 L 24.296875 -17.953125 C 23.992188 -19.546875 23.296875 -20.804688 22.203125 -21.734375 C 21.109375 -22.660156 19.75 -23.125 18.125 -23.125 Z M 18.125 -23.125 "/></g></g></g><g fill="#af8f6f" fill-opacity="1"><g transform="translate(144.52172, 55.034832)"><g><path d="M 13.453125 -26.515625 C 14.523438 -27.890625 15.921875 -28.914062 17.640625 -29.59375 C 19.367188 -30.28125 21.347656 -30.625 23.578125 -30.625 L 23.578125 -21.125 C 22.609375 -21.238281 21.8125 -21.296875 21.1875 -21.296875 C 18.925781 -21.296875 17.15625 -20.679688 15.875 -19.453125 C 14.59375 -18.234375 13.953125 -16.363281 13.953125 -13.84375 L 13.953125 0 L 3.390625 0 L 3.390625 -30.125 L 13.453125 -30.125 Z M 13.453125 -26.515625 "/></g></g></g></g></g><g clip-path="url(#aeeda15f28)"><g clip-path="url(#80217882a1)"><g transform="matrix(1, 0, 0, 1, 84, 154)"><g clip-path="url(#b5d2ec624a)"><g clip-path="url(#cd33dab870)"><g clip-path="url(#17e03d8cc8)"><path fill="#af8f6f" d="M 0.914062 3.214844 L 12.605469 0.28125 L 16.261719 14.847656 L 4.570312 17.78125 Z M 0.914062 3.214844 " fill-opacity="1" fill-rule="nonzero"/></g></g></g></g></g></g><g clip-path="url(#cc67a5535f)"><g clip-path="url(#81f5033ff0)"><g transform="matrix(1, 0, 0, 1, 75, 159)"><g clip-path="url(#c1fd26cf09)"><g clip-path="url(#92a372873e)"><g clip-path="url(#36dfded8d5)"><path fill="#ffffff" d="M 0.457031 21.941406 L 30.183594 0.96875 L 35.992188 9.207031 L 6.269531 30.175781 Z M 0.457031 21.941406 " fill-opacity="1" fill-rule="nonzero"/></g></g></g></g></g></g><g clip-path="url(#5bd1f24514)"><g clip-path="url(#3e36c5bf37)"><g transform="matrix(1, 0, 0, 1, 47, 153)"><g clip-path="url(#0f3236eb76)"><g clip-path="url(#424e1f9194)"><g clip-path="url(#c6ed1f8ca1)"><g clip-path="url(#64aa5c1fec)"><path fill="#af8f6f" d="M 26.269531 48.617188 C 28.863281 46.894531 32.210938 46.085938 33.828125 43.214844 C 35.027344 41.101562 35.398438 38.253906 35.460938 35.914062 C 35.847656 35.972656 36.199219 36.042969 36.472656 36.097656 C 37.300781 36.257812 38.171875 36.105469 38.917969 35.71875 C 36.28125 38.921875 36.742188 41.421875 37.144531 42.472656 C 37.253906 42.78125 37.167969 43.128906 36.902344 43.324219 C 34.648438 44.960938 33.949219 48.507812 34.578125 51.230469 C 35.578125 55.550781 32.71875 61.617188 27.5 60.375 C 23.214844 59.359375 22.078125 53.882812 24.28125 50.554688 C 24.144531 50.089844 23.945312 49.171875 24.363281 48.601562 C 24.90625 47.773438 26.269531 48.617188 26.269531 48.617188 Z M 25.839844 53.496094 C 25.304688 55.816406 26.394531 58.054688 28.273438 58.484375 C 30.15625 58.914062 32.105469 57.371094 32.640625 55.050781 C 33.171875 52.730469 32.085938 50.492188 30.203125 50.0625 C 28.320312 49.632812 26.375 51.175781 25.839844 53.496094 Z M 25.839844 53.496094 " fill-opacity="1" fill-rule="nonzero"/></g></g></g><g clip-path="url(#6f55c9d4dd)"><g clip-path="url(#8efc906484)"><g clip-path="url(#e8f29ff2e1)"><path fill="#af8f6f" d="M 38.3125 28.324219 L 56.382812 9.238281 C 56.578125 9.027344 56.890625 9.28125 56.75 9.519531 C 54.851562 12.449219 51.199219 18.089844 47.648438 23.40625 C 44.230469 25.15625 40.90625 26.886719 38.3125 28.324219 Z M 38.3125 28.324219 " fill-opacity="1" fill-rule="nonzero"/></g></g></g><g clip-path="url(#3017f2db43)"><g clip-path="url(#43802ea164)"><g clip-path="url(#2a61ee5e36)"><path fill="#af8f6f" d="M 8.332031 39.539062 C 8.195312 34.621094 14.253906 32.667969 18.28125 34.113281 C 20.90625 35.050781 24.515625 34.75 26.390625 32.710938 C 26.609375 32.46875 26.980469 32.429688 27.261719 32.558594 C 28.28125 33.085938 30.855469 33.878906 34.507812 31.355469 C 38.464844 28.621094 55.992188 19.933594 62.214844 16.863281 C 62.464844 16.742188 62.683594 17.089844 62.460938 17.253906 L 38.996094 34.835938 C 38.300781 35.347656 37.4375 35.5625 36.59375 35.394531 C 34.328125 34.964844 29.523438 34.34375 26.132812 35.753906 C 22.71875 37.183594 21.644531 41.078125 19.113281 43.460938 C 16.15625 46.238281 10.632812 45.398438 8.871094 41.839844 C 6.289062 41.847656 3.183594 38.714844 3.5 37.800781 C 3.78125 37.054688 6.09375 39.84375 8.332031 39.539062 Z M 37.585938 32.878906 C 37.929688 33.175781 38.433594 33.140625 38.710938 32.792969 C 39.007812 32.453125 38.972656 31.949219 38.628906 31.671875 C 38.28125 31.390625 37.78125 31.40625 37.503906 31.753906 C 37.226562 32.082031 37.257812 32.601562 37.585938 32.878906 Z M 10.320312 39.53125 C 10.535156 41.445312 12.617188 42.789062 14.996094 42.535156 C 17.359375 42.273438 19.121094 40.503906 18.910156 38.589844 C 18.695312 36.675781 16.609375 35.328125 14.230469 35.585938 C 11.867188 35.84375 10.105469 37.617188 10.320312 39.53125 Z M 10.320312 39.53125 " fill-opacity="1" fill-rule="nonzero"/></g></g></g></g></g></g></g><g fill="#af8f6f" fill-opacity="1"><g transform="translate(263.189635, 207.3836)"><g><path d="M 14.125 -4.390625 L 14.125 -35.640625 L 5.28125 -35.640625 L 5.28125 -40.03125 L 28.078125 -40.03125 L 28.078125 -35.640625 L 19.234375 -35.640625 L 19.234375 -4.390625 L 28.078125 -4.390625 L 28.078125 0 L 5.28125 0 L 5.28125 -4.390625 Z M 14.125 -4.390625 "/></g></g></g><g fill="#af8f6f" fill-opacity="1"><g transform="translate(290.645977, 207.3836)"><g><path d="M 2.453125 0 L 13.34375 -40.03125 L 20.34375 -40.03125 L 30.90625 0 L 25.578125 0 L 22.796875 -11.28125 L 10.5 -11.28125 L 7.671875 0 Z M 11.5625 -15.453125 L 21.796875 -15.453125 L 17.90625 -31.296875 C 17.71875 -32.078125 17.546875 -32.789062 17.390625 -33.4375 C 17.242188 -34.082031 17.132812 -34.664062 17.0625 -35.1875 C 16.988281 -35.75 16.914062 -36.25 16.84375 -36.6875 L 16.625 -36.6875 C 16.550781 -36.25 16.457031 -35.75 16.34375 -35.1875 C 16.269531 -34.664062 16.15625 -34.082031 16 -33.4375 C 15.851562 -32.789062 15.691406 -32.078125 15.515625 -31.296875 Z M 11.5625 -15.453125 "/></g></g></g></svg>